<svg xmlns="http://www.w3.org/2000/svg" viewBox="0 0 800 450" fill="none">
  <rect width="800" height="450" rx="8" fill="#f8fafc"/>
  <rect x="30" y="20" width="740" height="410" rx="8" fill="#fff" stroke="#e2e8f0" stroke-width="2"/>
  <rect x="0" y="0" width="800" height="50" rx="8" fill="#0f62fe"/>
  <rect x="20" y="12" width="40" height="26" rx="4" fill="#fff" opacity="0.3"/>
  <rect x="70" y="12" width="100" height="26" rx="4" fill="#fff" opacity="0.2"/>
  <text x="370" y="32" font-family="Arial" font-size="16" fill="#fff" text-anchor="middle" font-weight="bold">Detail Event</text>
  <rect x="50" y="70" width="700" height="40" rx="6" fill="#f1f5f9"/>
  <rect x="55" y="78" width="24" height="24" rx="4" fill="#0f62fe"/>
  <text x="88" y="95" font-family="Arial" font-size="14" fill="#475569">Halaman ini menampilkan ilustrasi tangkapan layar dari fitur Detail Event</text>
  <rect x="50" y="130" width="700" height="200" rx="8" fill="#fafafa" stroke="#e2e8f0" stroke-width="1" stroke-dasharray="6,4"/>
  <text x="370" y="235" font-family="Arial" font-size="18" fill="#94a3b8" text-anchor="middle">?? Screenshot Placeholder</text>
  <text x="370" y="260" font-family="Arial" font-size="13" fill="#94a3b8" text-anchor="middle">Ganti dengan gambar aktual</text>
  <rect x="300" y="275" width="140" height="32" rx="6" fill="#e2e8f0"/>
  <text x="370" y="296" font-family="Arial" font-size="12" fill="#64748b" text-anchor="middle">Ganti Gambar</text>
  <rect x="50" y="350" width="700" height="60" rx="8" fill="#fffbeb" stroke="#fde68a" stroke-width="1"/>
  <text x="65" y="375" font-family="Arial" font-size="12" fill="#92400e">?? Tips: Screenshot akan ditambahkan setelah aplikasi selesai dikembangkan.</text>
  <text x="65" y="395" font-family="Arial" font-size="12" fill="#92400e">Ukuran gambar disarankan 800x450 pixel.</text>
</svg>
