<svg xmlns="http://www.w3.org/2000/svg" viewBox="0 0 600 400">
  <rect width="600" height="400" fill="#f5f5f7"/>
  <rect x="20" y="20" width="560" height="360" rx="8" fill="#fff" stroke="#d2d2d7" stroke-width="1"/>
  <rect x="20" y="20" width="560" height="30" rx="8" fill="#f5f5f7"/>
  <circle cx="40" cy="35" r="6" fill="#fe5f57"/>
  <circle cx="58" cy="35" r="6" fill="#febc2e"/>
  <circle cx="76" cy="35" r="6" fill="#28c840"/>
  <text x="300" y="40" text-anchor="middle" font-family="Arial" font-size="12" fill="#333">Safe Exam Browser — Install</text>
  <rect x="80" y="80" width="200" height="100" rx="8" fill="#f0f0f0" stroke="#d2d2d7" stroke-width="1"/>
  <rect x="145" y="95" width="64" height="64" rx="12" fill="#0f62fe"/>
  <rect x="163" y="113" width="28" height="20" rx="4" fill="#fff" opacity="0.3"/>
  <text x="177" y="180" text-anchor="middle" font-family="Arial" font-size="11" fill="#1d1d1f">Safe Exam Browser</text>
  <text x="128" y="195" text-anchor="middle" font-family="Arial" font-size="10" fill="#86868b">Press and hold this icon to add to Applications</text>
  <path d="M290 130 L320 100 L320 115 L360 115 L360 145 L320 145 L320 160 Z" fill="#0071e3" opacity="0.6"/>
  <rect x="320" y="80" width="200" height="100" rx="8" fill="#f0f0f0" stroke="#d2d2d7" stroke-width="1"/>
  <rect x="400" y="95" width="48" height="48" rx="8" fill="#0071e3"/>
  <rect x="416" y="111" width="16" height="12" rx="2" fill="#fff" opacity="0.3"/>
  <text x="420" y="180" text-anchor="middle" font-family="Arial" font-size="11" fill="#1d1d1f">Applications</text>
  <text x="300" y="260" text-anchor="middle" font-family="Arial" font-size="14" font-weight="bold" fill="#1d1d1f">Step 4: Drag ke Applications</text>
  <text x="300" y="280" text-anchor="middle" font-family="Arial" font-size="12" fill="#5f6368">Drag ikon SEB ke folder Applications</text>
  <text x="300" y="340" text-anchor="middle" font-family="Arial" font-size="11" fill="#86868b">Placeholder — Ganti dengan screenshot asli</text>
</svg>