<svg xmlns="http://www.w3.org/2000/svg" viewBox="0 0 400 300" fill="none">
  <rect width="400" height="300" rx="20" fill="#f0f4ff"/>
  <rect x="60" y="50" width="280" height="200" rx="12" fill="#fff" stroke="#c7d2fe" stroke-width="2"/>
  <rect x="80" y="70" width="120" height="12" rx="6" fill="#0f62fe"/>
  <circle cx="90" cy="110" r="20" fill="#e0e7ff"/>
  <rect x="120" y="98" width="100" height="8" rx="4" fill="#cbd5e1"/>
  <rect x="120" y="112" width="80" height="8" rx="4" fill="#e2e8f0"/>
  <rect x="80" y="145" width="240" height="1" fill="#e2e8f0"/>
  <rect x="80" y="160" width="60" height="30" rx="6" fill="#0f62fe"/>
  <rect x="150" y="160" width="60" height="30" rx="6" fill="#e0e7ff"/>
  <rect x="80" y="205" width="240" height="1" fill="#e2e8f0"/>
  <rect x="80" y="220" width="200" height="8" rx="4" fill="#e2e8f0"/>
  <rect x="80" y="235" width="160" height="8" rx="4" fill="#f1f5f9"/>
  <path d="M340 280 L360 260 L380 280" stroke="#0f62fe" stroke-width="2" fill="none"/>
  <circle cx="335" cy="285" r="3" fill="#0f62fe"/>
  <circle cx="360" cy="260" r="3" fill="#0f62fe"/>
  <circle cx="385" cy="285" r="3" fill="#0f62fe"/>
</svg>
