<svg xmlns="http://www.w3.org/2000/svg" viewBox="0 0 600 450">
  <rect width="600" height="450" fill="#f8fafc"/>
  <rect x="30" y="20" width="540" height="410" rx="8" fill="#fff" stroke="#e2e8f0" stroke-width="2"/>
  <rect x="30" y="20" width="540" height="35" rx="8" fill="#1e293b"/>
  <circle cx="55" cy="38" r="5" fill="#ef4444"/>
  <circle cx="73" cy="38" r="5" fill="#f59e0b"/>
  <circle cx="91" cy="38" r="5" fill="#22c55e"/>
  <text x="300" y="43" text-anchor="middle" font-family="Segoe UI,Arial" font-size="11" fill="#94a3b8">PUSPENKOM - SEB</text>
  <text x="60" y="90" font-family="Segoe UI,Arial" font-size="12" fill="#64748b">Home &gt; Downloads &gt; PUSPENKOM - SEB</text>
  <rect x="50" y="105" width="500" height="50" rx="4" fill="#fff" stroke="#e2e8f0" stroke-width="1"/>
  <rect x="55" y="110" width="36" height="36" rx="4" fill="#3b82f6"/>
  <text x="73" y="133" text-anchor="middle" font-family="Segoe UI,Arial" font-size="16" font-weight="bold" fill="#fff">SE</text>
  <text x="100" y="133" font-family="Segoe UI,Arial" font-size="14" fill="#0f172a" font-weight="bold">SEB_v3.10.exe</text>
  <text x="100" y="148" font-family="Segoe UI,Arial" font-size="11" fill="#64748b">Application &bull; 85 MB</text>
  <rect x="50" y="165" width="500" height="50" rx="4" fill="#fff" stroke="#e2e8f0" stroke-width="1"/>
  <rect x="55" y="170" width="36" height="36" rx="4" fill="#6366f1"/>
  <text x="73" y="193" text-anchor="middle" font-family="Segoe UI,Arial" font-size="14" fill="#fff">⚙</text>
  <text x="100" y="193" font-family="Segoe UI,Arial" font-size="13" fill="#0f172a">p3musu.seb</text>
  <text x="100" y="208" font-family="Segoe UI,Arial" font-size="11" fill="#64748b">SEB Configuration File &bull; 2 KB</text>
  <rect x="140" y="280" width="200" height="40" rx="6" fill="#3b82f6"/>
  <text x="240" y="305" text-anchor="middle" font-family="Segoe UI,Arial" font-size="14" font-weight="bold" fill="#fff">Klik dua kali</text>
  <text x="240" y="340" text-anchor="middle" font-family="Segoe UI,Arial" font-size="12" fill="#64748b">SEB_v3.10.exe</text>
  <path d="M 240 250 L 240 275" stroke="#3b82f6" stroke-width="2" fill="none" marker-end="url(#arrow)"/>
  <defs>
    <marker id="arrow" markerWidth="10" markerHeight="7" refX="10" refY="3.5" orient="auto">
      <polygon points="0 0, 10 3.5, 0 7" fill="#3b82f6"/>
    </marker>
  </defs>
</svg>
